HIERARCHY
ROOT Hips
{
	OFFSET 0.00000 0.00000 0.00000
	CHANNELS 6 Xposition Yposition Zposition Yrotation Zrotation Xrotation 
	JOINT Lumbar
	{
		OFFSET 0 0 0
		CHANNELS 3 Zrotation Xrotation Yrotation
		JOINT Neck
		{
			OFFSET 0.00 0.2701 0.00
			CHANNELS 3 Zrotation Xrotation Yrotation
			End Site
			{
				OFFSET 0.00 0.1379 0.00
			}
		}
		JOINT RightShoulder
		{
			OFFSET 0.0119 0.2289 0.1181
			CHANNELS 3 Zrotation Xrotation Yrotation
			JOINT RightElbow
			{
				OFFSET 0.00 -0.1475 0.00
				CHANNELS 2 Zrotation Yrotation
				JOINT RightWrist
				{
					OFFSET 0.00 -0.1605 0.00
					CHANNELS 2 Zrotation Xrotation
					End Site
					{
						OFFSET 0.0040 -0.1068 0.0006
					}
				}
			}
		}
		JOINT LeftShoulder
		{
			OFFSET 0.0119 0.2289 -0.1181
			CHANNELS 3 Zrotation Xrotation Yrotation
			JOINT LeftElbow
			{
				OFFSET 0.00 -0.1475 0.00
				CHANNELS 2 Zrotation Yrotation
				JOINT LeftWrist
				{
					OFFSET 0.00 -0.1605 0.00
					CHANNELS 2 Zrotation Xrotation
					End Site
					{
						OFFSET 0.0040 -0.1068 -0.0006
					}
				}
			}
		}
	}
	JOINT RightHip
	{
		OFFSET 0.0316 -0.0424 0.0458
		CHANNELS 3 Zrotation Xrotation Yrotation
		JOINT RightKnee
		{
			OFFSET 0.00 -0.2438 0.00
			CHANNELS 1 Zrotation
			JOINT RightAnkle
			{
				OFFSET 0.00 -0.2449 0.00
				CHANNELS 3 Zrotation Xrotation Yrotation
				End Site
				{
					OFFSET 0.1237 -0.0542 0.0051
				}
			}
		}
	}
	JOINT LeftHip
	{
		OFFSET 0.0316 -0.0424 -0.0458
		CHANNELS 3 Zrotation Xrotation Yrotation
		JOINT LeftKnee
		{
			OFFSET 0.00 -0.2438 0.00
			CHANNELS 1 Zrotation
			JOINT LeftAnkle
			{
				OFFSET 0.00 -0.2449 0.00
				CHANNELS 3 Zrotation Xrotation Yrotation
				End Site
				{
					OFFSET 0.1237 -0.0542 -0.0051
				}
			}
		}
	}
}
MOTION
Frames: 16
Frame Time: 0.02
-0.00163 -0.00022 -0.00015 174.02501 -31.54284 -3.13451 45.00042 2.11671 -5.62996 -7.31174 -5.3766 -0.93061 -13.55236 -12.52755 8.71677 47.8129 85.61047 5.08827 -7.36183 -21.52033 12.33524 -7.87977 45.79293 -92.93191 11.8579 0.12547 33.35918 -2.68234 -14.64323 -21.11458 -8.15622 -3.40814 -3.95081 36.09142 9.27894 6.37706 -26.97289 -8.16097 3.48401 4.00593
-0.00176 -0.00024 -0.00122 173.9744 -31.55613 -3.11179 44.96981 2.12034 -5.52023 -7.48439 -5.24896 -0.93368 -13.93362 -12.23087 7.84344 46.99943 86.06153 5.32531 -5.91439 -21.90153 12.39671 -7.39489 45.45994 -92.94769 11.89515 0.11204 33.36949 -2.6017 -14.62701 -21.12523 -8.14253 -3.4038 -3.95036 36.0577 9.36958 6.36881 -26.96022 -8.16999 3.48201 4.00493
-0.00189 -0.00027 -0.00228 173.92422 -31.56947 -3.08909 44.93919 2.1239 -5.41083 -7.65668 -5.12155 -0.93674 -14.31449 -11.93519 6.97217 46.18736 86.51096 5.56136 -4.47323 -22.28196 12.45816 -6.91091 45.12736 -92.96355 11.93235 0.09865 33.37987 -2.52127 -14.61134 -21.13589 -8.12886 -3.39946 -3.94989 36.02425 9.46009 6.36056 -26.94757 -8.17898 3.47999 4.00393
-0.00202 -0.0003 -0.00335 173.8738 -31.58272 -3.06644 44.90866 2.1275 -5.30143 -7.82883 -4.99428 -0.93979 -14.69469 -11.63944 6.10144 45.37622 86.96059 5.79761 -3.0306 -22.66205 12.51946 -6.42743 44.79531 -92.97931 11.96949 0.08527 33.39016 -2.44087 -14.59526 -21.14652 -8.11521 -3.39513 -3.94944 35.99065 9.55048 6.35236 -26.93494 -8.18797 3.478 4.00293
-0.00215 -0.00033 -0.00442 173.82288 -31.59589 -3.04377 44.87818 2.1312 -5.1917 -8.00125 -4.86683 -0.94286 -15.075 -11.34263 5.22884 44.5641 87.41195 6.035 -1.58084 -23.04273 12.58074 -5.94327 44.46306 -92.99493 12.00664 0.07185 33.40036 -2.36028 -14.57842 -21.15713 -8.10155 -3.39081 -3.949 35.95674 9.64092 6.34411 -26.92226 -8.19701 3.47604 4.00196
-0.00227 -0.00035 -0.00548 173.77428 -31.6096 -3.02102 44.84724 2.13448 -5.08299 -8.17326 -4.73953 -0.94591 -15.45705 -11.04934 4.36039 43.7522 87.8573 6.26822 -0.15769 -23.4226 12.64254 -5.45968 44.12979 -93.0113 12.04395 0.0585 33.4111 -2.28017 -14.56518 -21.1679 -8.08785 -3.38642 -3.94849 35.92428 9.73157 6.33582 -26.90969 -8.2059 3.47389 4.00089
-0.00241 -0.00038 -0.00655 173.72101 -31.62218 -2.99848 44.8173 2.13859 -4.97236 -8.34592 -4.61205 -0.94897 -15.8351 -10.74933 3.48471 42.94074 88.31421 6.50946 1.31686 -23.80372 12.7032 -4.97554 43.79901 -93.02615 12.0809 0.04504 33.42072 -2.19923 -14.5448 -21.17833 -8.07425 -3.38218 -3.94812 35.88889 9.82173 6.3278 -26.89693 -8.21505 3.47211 4
-0.00253 -0.00041 -0.00762 173.67215 -31.63583 -2.97572 44.78635 2.14192 -4.8635 -8.51795 -4.48478 -0.95203 -16.21695 -10.45544 2.61542 42.12892 88.76056 6.74348 2.74502 -24.18361 12.76495 -4.49178 43.46581 -93.04238 12.11819 0.03168 33.43143 -2.11897 -14.53084 -21.18907 -8.06056 -3.37781 -3.94763 35.8563 9.9123 6.31917 -26.88434 -8.224 3.47002 3.99896
-0.00265 -0.00044 -0.00868 173.62827 -31.6507 -2.95277 44.75448 2.14436 -4.75675 -8.68944 -4.35753 -0.95509 -16.60332 -10.16924 1.75455 41.31592 89.19371 6.96805 4.11274 -24.56255 12.82792 -4.00865 43.12988 -93.06043 12.15587 0.01844 33.44327 -2.03981 -14.52547 -21.20021 -8.04673 -3.37322 -3.94695 35.82675 10.00361 6.31122 -26.87196 -8.23256 3.46744 3.99769
-0.00281 -0.00047 -0.00974 173.5545 -31.65832 -2.93113 44.72883 2.15208 -4.63768 -8.86474 -4.22942 -0.95816 -16.96335 -9.83942 0.84701 40.50746 89.70194 7.24513 5.817 -24.94864 12.88355 -3.52239 42.81031 -93.06842 12.19125 0.0045 33.448 -1.95513 -14.47294 -21.20913 -8.03361 -3.3697 -3.94722 35.77857 10.09137 6.30366 -26.85838 -8.24293 3.46732 3.99759
-0.00289 -0.00049 -0.01083 173.54456 -31.68134 -2.90661 44.68948 2.14859 -4.54475 -9.03152 -4.10362 -0.96121 -17.37905 -9.60125 0.03695 39.69105 90.05232 7.41263 6.8185 -25.31848 12.95485 -3.04253 42.45593 -93.09733 12.23148 -0.00794 33.4681 -1.88158 -14.51841 -21.22267 -8.01908 -3.36407 -3.94558 35.77038 10.18614 6.29252 -26.84731 -8.24976 3.46226 3.99514
-0.00274 -0.00051 -0.01201 173.70535 -31.74622 -2.87513 44.61675 2.11465 -4.52308 -9.17883 -3.98026 -0.96426 -17.94832 -9.62038 -0.49449 38.83916 89.961 7.26647 5.81173 -25.65293 13.06806 -2.58206 42.00756 -93.1867 12.28531 -0.01651 33.52786 -1.84322 -14.8479 -21.24956 -7.99977 -3.35119 -3.93787 35.86751 10.30486 6.29565 -26.84345 -8.24439 3.44147 3.98503
-0.0025 -0.00052 -0.01322 173.93106 -31.82659 -2.84058 44.52934 2.0694 -4.52771 -9.31687 -3.86 -0.96732 -18.57313 -9.73059 -0.92951 37.98223 89.71286 7.01268 4.11369 -25.96921 13.19718 -2.1279 41.5242 -93.29644 12.34399 -0.0235 33.60349 -1.81518 -15.27309 -21.28094 -7.9792 -3.33645 -3.9284 36.00557 10.43001 6.29177 -26.84202 -8.23585 3.41604 3.97273
-0.00229 -0.00053 -0.01443 174.12997 -31.90023 -2.80686 44.44606 2.02907 -4.52068 -9.45657 -3.74078 -0.97031 -19.17232 -9.79517 -1.41669 37.13597 89.54192 6.8166 2.78461 -26.28803 13.31976 -1.66933 41.05553 -93.39493 12.40019 -0.03106 33.67354 -1.77942 -15.64452 -21.30983 -7.95984 -3.32351 -3.92031 36.12784 10.54877 6.27403 -26.8393 -8.23044 3.39426 3.96228
-0.00212 -0.00054 -0.0156 174.31764 -31.97284 -2.77557 44.37404 1.98958 -4.51265 -9.60697 -3.61094 -0.97343 -19.77418 -9.8773 -1.87095 36.2526 89.3452 6.58317 1.22435 -26.63164 13.43959 -1.21627 40.59089 -93.50212 12.45738 -0.03932 33.73687 -1.75651 -16.05913 -21.3407 -7.93784 -3.30654 -3.90979 36.23854 10.68106 6.32392 -26.83749 -8.21814 3.36631 3.94843
-0.00184 -0.00056 -0.01687 174.54407 -32.05097 -2.73841 44.27439 1.94577 -4.51274 -9.73295 -3.50431 -0.97646 -20.38244 -9.94512 -2.36781 35.44749 89.16554 6.402 -0.02025 -26.91845 13.56876 -0.75452 40.11085 -93.5957 12.51387 -0.04568 33.8178 -1.70924 -16.40694 -21.36845 -7.92099 -3.29748 -3.90387 36.38279 10.78811 6.2367 -26.83424 -8.21911 3.34968 3.94088
